<?xml version="1.0" encoding="utf-8"?>
<!-- Generator: Adobe Illustrator 19.1.1, SVG Export Plug-In . SVG Version: 6.00 Build 0)  -->
<svg version="1.1" id="Layer_1" xmlns="http://www.w3.org/2000/svg" xmlns:xlink="http://www.w3.org/1999/xlink" x="0px" y="0px"
	 viewBox="232 -138.6 473.3 378.2" enable-background="new 232 -138.6 473.3 378.2" xml:space="preserve">
<path d="M346.6-138.6c-17.5,5.7-31.2,11.9-48.1,24.3c-2.2,2.1-4.3,4.2-6.4,6.4c0.2,0.6,0.6,1.3,1.2,2.3
	c1,1.8,2.8,4,5,6.2c-3.5,5.5-6.6,11.1-9.5,16.6c-3.7-3-7-6.4-9.6-10.2c-7.6,9.5-14.5,19.7-20.4,30.4c0.4,1.6,1.6,3.4,3.8,5.8
	c2.7,2.9,6.8,5.8,11.6,8.3c-2,6.1-3.8,12.2-5.2,18.3c-7.4-3.4-14.2-7.8-19.6-13.3c-5.9,13.8-10.5,28.4-13.4,43.7
	c1.3,2.4,3.7,4.7,7.3,7c5.1,3.3,12.4,6.1,20.3,7.7c0,6.4,0.3,12.8,0.8,19.1C253,32.3,242,28.8,233,22.8c-0.1,0-0.1-0.1-0.2-0.1
	c-1.3,15.6-0.9,31,1.1,45.9c2.3,3.5,6.2,6,11.9,7.9c7.4,2.5,17.5,3.3,27.7,2.3c2,6.1,4.3,12.1,6.8,18c-14,2.1-28.2,1.6-40.6-2.6
	c-0.3-0.1-0.7-0.3-1-0.4c4,15.5,9.7,30.4,16.8,44.4c3.6,2.8,8.3,4.2,14.7,4.7c9.3,0.6,21.1-1.7,32.4-6.3c3.7,5.3,7.6,10.3,11.8,15.3
	c-14.6,6.7-30.4,10.7-45.1,9.8c10,14.6,21.6,28,34.8,39.8c4.3,1.4,9.3,1.5,15.4,0.3c9.6-1.9,20.9-7.4,31-15l0,0
	c5.2,4,10.5,7.8,15.9,11.3c-12,9.9-25.6,17.7-39.5,21.2c11.7,7.9,24.1,14.7,37.3,20.2c4.9,0.4,10.3-1,16.3-3.9
	c7.7-3.7,15.8-10.3,23-18.3c17,6.8,34.7,11.2,52.6,12.9l1.8-18.6c-14.3-1.4-28.6-4.8-42.6-9.9c6.9-11.1,11.6-23.2,12.9-33.4
	c1.2-9.1,0.1-16.2-3.8-21.4c-8.1-1.6-15.9-3.9-23.4-7c-0.2,6.5-1.7,13-4.2,19.1c-3.7,9.1-9.5,17.8-16.5,25.7
	c-5.4-3.3-10.6-6.8-15.7-10.6c6.6-7.2,11.9-15,14.9-22.2c3.8-9.2,4.2-16.6,0.6-22.8c-7.7-5-15-10.7-21.7-17.2
	c-1.8,4.3-4.2,8.4-7,12.1c-5.5,7.2-12.6,13.5-20.6,18.9c-4.1-4.7-8.1-9.6-11.8-14.7c7.2-4.7,13.3-10.1,17.5-15.6
	c5-6.6,7.2-12.4,6.5-18.1c-5-6.6-9.5-13.6-13.5-21c-2.3,2.7-4.9,5.1-7.7,7.3C315,86,307,90,298.4,92.8c-2.6-5.7-5-11.5-7-17.4
	c7.4-2.4,14.1-5.7,19-9.4c5.7-4.4,8.8-8.5,9.5-13.3c-3-8-5.5-16.3-7.4-24.9c-1.9,1.1-3.8,2-5.8,2.8c-7.4,2.9-15.8,4.4-24.3,4.8
	c-0.7-6.2-1-12.4-1-18.7c7-0.3,13.5-1.4,18.4-3.4c4.6-1.8,7.6-3.8,9.3-6.3c-1-9.7-1.3-19.7-0.8-29.8c-0.6,0.1-1.3,0.2-1.9,0.3
	c-6.6,0.7-13.6,0.1-20.4-1.3c1.4-6,3.1-12,5.1-18.1c4.9,0.9,9.5,1.2,13.3,0.8c2.6-0.3,4.5-0.8,6-1.4c1.4-8.9,3.4-17.6,6-26
	c-4.2-0.7-8.3-2.1-12.3-3.9c2.8-5.5,5.9-10.9,9.3-16.4c2.4,1,4.7,1.7,6.7,2c1.1,0.2,2,0.3,2.8,0.3c1.9-4.6,4-9.2,6.3-13.6
	C335.5-112.5,342-124.9,346.6-138.6L346.6-138.6z M591-138.6c4.6,13.7,11.1,26.1,17,37.9c2.3,4.4,4.4,8.9,6.3,13.6
	c0.8,0,1.7-0.1,2.8-0.3c2-0.3,4.3-1,6.7-2c3.4,5.5,6.5,10.9,9.3,16.4c-4,1.8-8.1,3.1-12.3,3.9c2.6,8.4,4.6,17.1,6,26
	c1.5,0.7,3.4,1.1,6,1.4c3.7,0.4,8.4,0.1,13.3-0.8c2,6.1,3.7,12.1,5.1,18.1c-6.8,1.5-13.8,2-20.4,1.3c-0.7-0.1-1.3-0.1-2-0.3
	c0.5,10.1,0.2,20.1-0.8,29.8c1.8,2.4,4.7,4.4,9.3,6.3c5,2,11.5,3.1,18.4,3.4c0,6.3-0.4,12.6-1,18.7c-8.5-0.3-16.8-1.8-24.3-4.8
	c-2-0.8-3.9-1.7-5.8-2.8c-1.9,8.6-4.4,16.9-7.4,24.9c0.7,4.7,3.8,8.9,9.5,13.3c4.9,3.8,11.6,7,19,9.4c-2,5.9-4.4,11.7-7,17.4
	c-8.6-2.9-16.6-6.9-23.4-12c-2.8-2.1-5.4-4.6-7.7-7.3c-4,7.4-8.5,14.4-13.5,21c-0.8,5.7,1.4,11.5,6.5,18.1
	c4.2,5.5,10.3,10.9,17.5,15.6c-3.7,5.1-7.6,10-11.8,14.7c-8-5.4-15.1-11.7-20.6-18.9c-2.8-3.7-5.2-7.8-7-12.1
	c-6.7,6.5-14,12.2-21.7,17.2c-3.5,6.2-3.2,13.6,0.6,22.8c3,7.3,8.3,15,14.9,22.2c-5.1,3.8-10.3,7.3-15.7,10.6
	c-7-7.9-12.8-16.6-16.5-25.7c-2.5-6.1-4-12.6-4.2-19.1c-7.5,3.1-15.3,5.4-23.4,7c-3.9,5.3-5,12.3-3.8,21.4
	c1.3,10.3,6.1,22.3,13,33.4c-14,5.2-28.3,8.6-42.6,9.9l1.8,18.6c17.8-1.7,35.5-6.1,52.6-12.9c7.3,8,15.4,14.5,23,18.3
	c6.1,2.9,11.4,4.3,16.3,3.9c13.2-5.5,25.7-12.3,37.3-20.2c-13.9-3.5-27.6-11.3-39.5-21.2c5.4-3.5,10.7-7.3,15.9-11.3
	c10.2,7.6,21.5,13.1,31.1,15c6.1,1.2,11.1,1.2,15.3-0.3c13.2-11.8,24.9-25.2,34.9-39.8c-14.7,0.9-30.5-3-45.1-9.8
	c4.1-4.9,8.1-10,11.8-15.3c11.3,4.6,23.1,7,32.4,6.3c6.4-0.4,11.2-1.9,14.7-4.7c7.2-14,12.9-28.9,16.8-44.4c-0.3,0.1-0.7,0.3-1,0.4
	c-12.4,4.2-26.6,4.7-40.6,2.6c2.5-5.9,4.8-11.9,6.8-18c10.2,1,20.3,0.2,27.7-2.3c5.8-2,9.6-4.5,12-7.9c2-14.9,2.4-30.3,1.1-45.9
	l-0.1,0.1c-9,5.9-20,9.5-31.4,11.2c0.6-6.3,0.9-12.7,0.8-19.1c7.9-1.6,15.2-4.3,20.3-7.7c3.6-2.4,5.9-4.6,7.3-7
	c-2.9-15.2-7.5-29.9-13.4-43.7c-5.3,5.6-12.1,10-19.6,13.3c-1.4-6.1-3.2-12.2-5.2-18.3c4.8-2.5,8.9-5.5,11.6-8.3
	c2.2-2.4,3.4-4.1,3.8-5.8c-6-10.8-12.8-21-20.4-30.5c-2.6,3.8-5.9,7.2-9.6,10.2c-2.9-5.6-6-11.1-9.5-16.6c2.2-2.2,4-4.4,5-6.2
	c0.5-1,0.9-1.7,1.2-2.2c-2.1-2.2-4.3-4.3-6.5-6.4C622.2-126.8,608.5-133,591-138.6L591-138.6z M364.8-77.7L388.9,52H553l22.9-124.5
	L518-9l-45-67.2L428-9L364.8-77.7L364.8-77.7z M392.4,70.7l3.6,19.2h150l3.5-19.2H392.4L392.4,70.7z"/>
</svg>
