<?xml version="1.0" encoding="utf-8"?>
<!-- Generator: Adobe Illustrator 19.1.1, SVG Export Plug-In . SVG Version: 6.00 Build 0)  -->
<svg version="1.1" id="Layer_1" xmlns="http://www.w3.org/2000/svg" xmlns:xlink="http://www.w3.org/1999/xlink" x="0px" y="0px"
	 viewBox="105 -100.8 511.6 488" enable-background="new 105 -100.8 511.6 488" xml:space="preserve">
<g>
	<path d="M193.1,182.4h-35.6c-26.5,0-51.5-12.7-51.5-42.2c0-21.5-0.8-93.7,32.9-93.7
		c5.6,0,33.2,22.6,69,22.6c12.2,0,23.9-2.1,35.3-6.1c-0.8,5.8-1.3,11.7-1.3,17.5c0,24.2,7.7,48,21.5,68
		C235.8,149.2,210.9,161.1,193.1,182.4z M207.9,46.5c-37.4,0-68-30.5-68-68s30.5-68,68-68s68,30.5,68,68S245.4,46.5,207.9,46.5z
		 M476.8,386.2h-232c-42.5,0-70.9-25.7-70.9-68.7c0-60,14.1-152.1,91.8-152.1c9,0,41.9,36.9,95,36.9s86-36.9,95-36.9
		c77.8,0,91.8,92.1,91.8,152.1C547.7,360.5,519.3,386.2,476.8,386.2z M360.8,182.4c-56.3,0-101.9-45.7-101.9-101.9
		S304.6-21.5,360.8-21.5S462.8,24.2,462.8,80.4S417.1,182.4,360.8,182.4z M513.7,46.5c-37.4,0-68-30.5-68-68s30.5-68,68-68
		c37.4,0,68,30.5,68,68S551.1,46.5,513.7,46.5z M564.2,182.4h-35.6c-17.8-21.2-42.7-33.2-70.3-34c13.8-19.9,21.5-43.8,21.5-68
		c0-5.8-0.5-11.7-1.3-17.5c11.4,4,23.1,6.1,35.3,6.1c35.8,0,63.4-22.6,69-22.6c33.7,0,32.9,72.2,32.9,93.7
		C615.6,169.6,590.7,182.4,564.2,182.4z"/>
</g>
</svg>
