<?xml version="1.0" encoding="utf-8"?>
<!-- Generator: Adobe Illustrator 19.1.1, SVG Export Plug-In . SVG Version: 6.00 Build 0)  -->
<svg version="1.1" id="Layer_1" xmlns="http://www.w3.org/2000/svg" xmlns:xlink="http://www.w3.org/1999/xlink" x="0px" y="0px"
	 viewBox="126.1 -86.4 473.5 474.4" enable-background="new 126.1 -86.4 473.5 474.4" xml:space="preserve">
<path d="M346.1-86.4C289.4-86,235.2-57.4,194.5-14.1c-53.4,56.8-81.9,137.9-61,210.1c16.3-8.8,32.8-16,48.9-21.4
	c-6.3-123.2,89.2-210.9,200-210.3c4.3-13.4,10.3-27.3,18.1-41.9c-16.3-5.4-32.7-8.4-49-8.8C349.8-86.4,347.9-86.4,346.1-86.4
	L346.1-86.4z M377.3-17c-97.6,1.7-179.9,77.1-176.4,186.3c11-2.7,21.8-4.6,32.3-5.4c14.6-1.2,28.7-0.5,41.8,2.4L384.3,56.9
	c-5.3-12.1-8.5-25-9.3-38.8c-0.7-11.3,0.1-23,2.6-35.2C377.5-17,377.4-17,377.3-17L377.3-17z M438.1,43.7l-16.9,16.9L451.8,91
	l16.8-16.8L438.1,43.7L438.1,43.7z M401,66.7L281.6,186.1l44.6,44.6l119.3-119.3L401,66.7z M590.9,112.8
	c-14.5,7.8-28.3,13.8-41.6,18.1c0.8,111-87.2,206.8-210.7,200.3c-5.4,16.1-12.6,32.5-21.3,48.7c72.2,20.9,153.3-7.6,210.1-61
	C584.5,265.2,615.9,188.1,590.9,112.8L590.9,112.8z M454.9,128.4L346.7,236.6c3.2,13.6,4.1,28.2,2.8,43.5
	c-0.9,10.6-2.8,21.5-5.5,32.6c109.6,3.7,185.1-79,186.6-176.9c-12.3,2.5-24.2,3.4-35.5,2.7C480.8,137.5,467.4,134.1,454.9,128.4
	L454.9,128.4z M275.5,206.3L126.1,355.7V388h28.7l151.2-151.2L275.5,206.3L275.5,206.3z"/>
</svg>
