<?xml version="1.0" encoding="utf-8"?>
<svg version="1.1" id="Layer_1" xmlns="http://www.w3.org/2000/svg" xmlns:xlink="http://www.w3.org/1999/xlink" x="0px" y="0px"
	viewBox="-31.5 -20.3 266.2 344.1" enable-background="new -31.5 -20.3 266.2 344.1" xml:space="preserve">
	<path d="M29.2,129.9c2.2-12.5,22.7-32.8,36.4-43c10.5-7.9,32.2-2.6,55.5-31.4c12.2-15.1,0.5-31.9-8.6-40.4
		c-9.2-8.5-63.5-3.3-71.2,2.3C33.5,23,15,71.6,9.7,83.7s-35.8,59.8-40.6,74.2c-4.8,14.4,18.6,47.1,40.3,33.9
		C31,178.6,27,142.4,29.2,129.9z M57.9-9.6C50.1-11,38.5,11.4,52,11.7C65.5,12,65.6-8.1,57.9-9.6z M73.8,6.1
		c10.2,4,18.9-18.5,9.7-23.3S63.6,2.1,73.8,6.1z M91.9,4.2c9,6.2,22.2-18.4,13.1-23.7C96-24.8,82.9-2,91.9,4.2z M110.4,8.4
		c8.2,8.6,28-12.5,18.7-23.4C119.7-26,102.1-0.2,110.4,8.4z M122.4,20c2.4,4.8,8.2,17.8,13.9,16.3c5.7-1.5,32.3-24.7,15.7-40
		c-6-5.5-18.2-1.5-22.8,7.1C124.7,12,120,15.3,122.4,20z" />
	<path d="M182.6,118.2c-12.2-2.9-32.6-3.4-38.4,15.2c-11.1,35.3,5.3,50.4,4.6,63.6c-0.9,17.2-6.5,45.4-15.7,54.2
		c-9.2,8.7-41.5,25.4-40.6,50.7c1,25.3,41.2,26.7,50.5,14.8c9.3-11.9,32.1-63.7,39.3-74.9c7.2-11.1,37.4-53.4,37.8-63
		C220.5,169.2,194.8,121.1,182.6,118.2z M233.3,150c-5.5-5.7-22.1,5.6-14.4,16.6C226.6,177.7,238.9,155.6,233.3,150z M211.4,145.4
		c9,6.3,23.1-16,14-21C216.4,119.4,202.5,139.1,211.4,145.4z M203,129.2c10.1,4.1,21.9-19.5,12.5-24.1
		C206,100.6,192.8,125.2,203,129.2z M189.3,116.2c11.7,2.1,23.5-26.8,9.2-28.5C184.2,85.9,177.6,114.1,189.3,116.2z M173,112.6
		c5.3-0.6,5.4-6.4,10-15c4.6-8.5,1.2-21-6.7-22.9c-21.9-5.3-26.5,29.7-24.6,35.3C153.6,115.7,167.7,113.3,173,112.6z" />
</svg>
