<svg xmlns:svg="http://www.w3.org/2000/svg" xmlns="http://www.w3.org/2000/svg" width="453.8" height="127.5" xml:space="preserve" version="1">
<style>
	.s0{
		fill:#fff;
		opacity: 0.04;
	}
</style>  <defs>
    <clipPath clipPathUnits="userSpaceOnUse">
      <path d="M0 0L0 0 0 0 0 0z"/>
    </clipPath>
    <clipPath clipPathUnits="userSpaceOnUse">
      <path d="M0 0L0 0 0 0 0 0z"/>
    </clipPath>
  </defs>
  <g transform="matrix(1.25,0,0,-1.25,55.698758,192.41543)" class="s0">
    <g transform="matrix(3.5961261,0,0,3.5961261,-42.305698,-218.40281)">
      <path d="M37.5 96.9C37.5 96.9 38.2 97.3 39.2 97.1 40.1 96.9 41.8 97.1 42.2 97.8 42.2 97.8 41.8 97.5 41.1 97.6 41.1 97.6 42.5 98.7 42 99.3 41.6 99.8 40.4 99 40.4 99 40.4 99 40.4 99.5 40 99.5 39.5 99.5 38.6 98.8 38.3 98.5 38.3 98.5 38.7 99.3 38.5 99.5 38.3 99.7 37 98.8 37 98.8 37 98.8 37.2 99.4 36.7 99.5 36.1 99.5 35.5 99.1 35 98.6 35 98.6 35.6 99.5 35.1 99.5 35.1 99.5 35.6 100.4 36.5 101.3 37.5 102.1 38.2 102 38.4 101.8 38.7 101.5 38.6 100.9 38.2 100.8 37.8 100.7 37.6 101 37.7 101.2 37.7 101.2 38 101.1 38.1 101.3 38.2 101.5 38.2 101.8 37.9 101.8 37.5 101.8 37.3 101.6 37.3 101.2 37.2 100.8 37.6 100.6 38 100.6 38.4 100.6 39 101 39 101.6 39 102.3 38.6 102.4 38.3 102.4 37.9 102.4 37.3 102.3 36.3 101.3 35.3 100.3 34.7 99.4 34.7 99.4 34.7 99.4 34.3 99.1 33.7 98.7 33.7 98.7 33.7 99.3 33.3 99.4 32.8 99.6 32.2 99.2 31.7 98.9 31.7 98.9 31.7 99.4 31.2 99.5 30.7 99.6 29.8 98.7 29.8 98.7 29.8 98.7 30 99.3 29.8 99.4 29.5 99.6 28.5 98.7 28.5 98.7 28.5 98.7 28.7 99.1 28.9 99.3 29.2 99.5 29.3 99.6 29.3 99.6 29.3 99.6 28.9 99.3 28.2 99.4 27.7 99.4 27 99.5 26 99.5 25.1 99.5 24.5 99.4 23.7 98.9 23.7 98.9 23.7 99.3 23.4 99.4 22.9 99.5 21.8 98.8 21.8 98.8 21.8 98.8 21.9 99.3 21.4 99.4 20.7 99.6 19.9 98.8 19.9 98.8 19.9 98.8 20 99.3 19.7 99.4 19.4 99.5 18.5 99 18.4 98.9 18.4 98.9 18.6 99.3 18.5 99.4 18.3 99.5 17.5 99.2 17 98.8 17 98.8 18 100.3 18.7 101.1 19.5 101.9 20.2 102.5 20.7 102.4L20.7 102.5C20.7 102.5 20 102.8 18.4 101.2 17.9 100.7 17.4 100 17.1 99.5 16.5 98.8 16.2 98.2 16.2 98.2 16.2 98.2 15.8 97.9 15.4 97.7 15 97.5 14.7 97.5 14.6 98 14.5 98.5 14.9 99.3 15.6 99.2 15.6 99.2 15.4 98.8 15.7 98.7 16 98.6 16.2 99 16.2 99.1 16.1 99.5 15.4 99.5 15 99.3 14.2 98.8 13.7 97.7 14.3 97.2 14.8 96.8 15.8 97.7 15.8 97.7 15.8 97.7 14.2 95.3 12.9 94.1 11 92.3 8.5 90.6 8.5 90.6L8.7 90.6C8.7 90.6 9.9 91.5 10.1 91.6 10.6 92 11.6 92.7 12.3 93.3 13.1 93.9 13.9 94.6 14.6 95.4 15.9 97 16.9 98.6 16.9 98.6 16.9 98.6 17.7 99.1 18 99 18.1 99 17.1 97.3 16.6 97.1 16.6 97.1 16.7 97 17.1 97.2 17.4 97.4 17.7 97.7 17.9 98 18.1 98.4 18.8 99.1 19.2 98.8 19.6 98.6 19.1 97.2 18.4 97.4 18.4 97.4 18.6 97.7 18.4 97.9 18.3 98 18.1 97.9 17.9 97.6 17.8 97.3 18 97 18.4 97.1 18.9 97.2 19.6 97.6 19.9 98.6 19.9 98.6 20.7 99.1 21.1 99 21.4 98.8 21.2 97.2 20.4 97.4 20.4 97.4 20.7 97.9 20.4 98 20.1 98.2 19.7 97.5 20 97.2 20.3 96.9 20.9 97.2 21.3 97.6 21.7 98.1 21.7 98.3 21.8 98.6 21.8 98.6 22.8 99.3 23.1 98.9 23.3 98.6 22.8 97.6 21.9 97.1L22.2 97.1C22.2 97.1 22.7 97.5 23.1 97.3 23.5 97.1 23.3 95.9 22.7 95.2 21.3 93.9 18.9 92.8 18.9 92.8L19 92.8C19 92.8 21.9 94 23 95.2 24 96.2 24 97.4 23.7 97.6 23.5 97.9 22.9 97.7 22.9 97.7 22.9 97.7 23.5 98.2 23.7 98.7 23.7 98.7 24.3 99.1 25.2 99.1 25.2 99.1 23.8 98.1 24.2 97.3 24.7 96.5 26 97.7 26 97.7 26 97.7 25.9 97.2 26.3 97.1 26.8 97 27.4 97.5 27.4 97.5 27.4 97.5 26.3 95.3 24.2 93.3 21.7 90.9 19.7 89.8 19.7 89.8L19.9 89.8C19.9 89.8 22.1 91.1 24.6 93.4 27 95.7 28.3 98.4 28.3 98.4 28.3 98.4 29.1 99.1 29.3 99 29.5 98.9 29.1 98.1 29 98 28.9 97.8 28.3 96.3 26.9 94.7 24.8 92 22.6 90.5 22.6 90.5L22.8 90.5C22.8 90.5 25.3 92.3 27.1 94.4 28.6 96.3 29.5 98.2 29.5 98.2 29.5 98.2 30.2 99 30.6 99 31 99 31.2 98.7 31.1 98.2 31 97.7 30.6 97.4 30.3 97.4 30.3 97.4 30.5 97.7 30.2 97.9 29.9 98 29.6 97.6 29.7 97.3 29.9 97 30.6 97 31 97.4 31.5 97.9 31.6 98.1 31.7 98.6 31.7 98.6 32.5 99.3 33 99 33.5 98.6 32.8 97.3 32.2 97.4 32.2 97.4 32.7 97.7 32.4 97.9 32.1 98.2 31.6 97.6 31.9 97.3 32.1 96.9 32.7 97.1 33 97.4 33.4 97.7 33.6 98 33.7 98.4 33.7 98.4 34.5 99.1 34.7 99 34.9 98.9 34.5 97.8 33.7 96.9 33.7 96.9 34 97.1 34.2 97.2 34.4 97.2 34.5 97.4 34.6 97.6 34.6 97.7 34.8 98.1 34.8 98.1 34.8 98.1 35.7 99.1 36.3 99 36.7 98.9 36.3 97.3 35.7 97.4 35.7 97.4 36 97.7 35.7 97.9 35.4 98 34.9 97.5 35.2 97.2 35.6 96.9 36.3 97.2 36.6 97.6 36.9 98 37 98.5 37 98.5 37 98.5 37.7 99.1 38 99 38.2 99 37.6 97.7 37.4 97.3 37.2 96.9 36.6 95.8 35.5 94.5 34 92.7 32.7 91.7 32.7 91.7L33 91.7C33 91.7 34.7 93.3 35.7 94.4 37.1 96 37.5 96.9 37.5 96.9zM26 97.9C26 97.9 25.1 97.2 24.8 97.7 24.6 98.2 25.1 98.9 25.6 99.1 25.6 99.1 26.3 99 26.8 99 26.8 99 26.1 98.5 26 97.9zM28 98.7C27.9 98.5 27.8 98.1 27.5 97.9 27.3 97.6 26.9 97.5 26.7 97.6 26.5 97.7 26.5 98 26.6 98.4 26.8 98.7 27.1 99 27.1 99 27.1 99 27.3 99.1 27.6 99 27.9 99 28.1 99 28.2 99 28.2 99 28.1 98.9 28 98.7zM40.4 98.7C40.4 98.7 41.1 99.4 41.4 99 41.8 98.3 40.8 97.5 40.8 97.5 40.1 97.5 39.5 97.6 39.5 97.6 40.4 98.3 40.4 98.7 40.4 98.7zM38.5 98.4C39 98.9 39.6 99.2 39.8 99 40.3 98.4 39.2 97.6 39.2 97.6 38.6 97.7 37.7 97.3 37.7 97.3 37.8 97.5 38.2 98 38.5 98.4z" />
    </g>
    <g transform="matrix(3.5961261,0,0,3.5961261,-42.305698,-218.40281)">
      <path d="M55.9 99.9L55.5 99.8C55.1 99.1 53.3 99.4 53.3 99.4 53.7 100.2 54.6 101.1 55.1 101.6 55.7 102 56.3 102.1 56.6 101.8 57 101.6 56.9 101.2 56.8 101.1 56.7 100.9 56.4 100.7 56.1 100.8 55.8 101 55.9 101.2 55.9 101.2 56.1 101 56.3 101.1 56.4 101.2 56.5 101.3 56.6 101.5 56.4 101.7 56 102 55.1 101.1 55.9 100.6 56.3 100.3 56.8 100.6 57.1 101 57.3 101.3 57.5 101.9 57.1 102.3 56.5 102.9 55.3 101.9 55.3 101.9 54.9 102.3 54.3 102.3 53.6 101.6 52.9 100.8 52.2 99.6 52.2 99.6 51.2 99.7 50.9 99.5 50.4 99.4 49.9 99.2 49.4 99.3 48.7 99.4 48 99.6 47.4 99.5 47.4 99.5 48 100.5 48.9 101.3 49.4 101.6 49.8 102 50.4 102.2 50.7 102 51 101.9 51.2 101.4 50.8 101.1 50.5 100.8 50.1 101.2 50.1 101.2 50.5 101.2 50.8 101.7 50.5 101.9 50.3 102.1 50 101.8 49.9 101.7 49.8 101.6 49.6 101.1 50 100.9 50.3 100.6 50.8 100.7 51.1 101 51.4 101.3 51.6 101.9 51.3 102.2 50.9 102.6 50 102.5 49 101.6 48.1 100.8 47.2 99.5 47.2 99.5 46.3 99.3 45.6 98.8 45.6 98.8 45.6 98.8 45.6 99.5 45.2 99.5 44.2 99.5 43.3 98.5 43.3 98.5 43.8 99.4 43.6 99.6 43.2 99.4 42.8 99.2 42.4 99 42.2 98.8 42.1 98.7 42.1 98.7 42.1 98.6 42.2 98.6 42.2 98.6 42.3 98.7 42.5 98.8 42.9 99.1 43 99 43.1 98.9 42.8 98.3 42.5 97.7 42.2 97.1 41.7 96 39.4 93.5 37.1 91 35.3 89.9 35.3 89.9L35.5 89.9C38.5 92.2 40.2 94 41.2 95.2 41.8 95.9 42.3 96.7 42.6 97.2 42.8 97.5 42.8 97.6 42.8 97.6 43.6 98.7 44.2 99 44.7 99.1 45.1 99.1 45.2 98.8 44.9 98.1 44.6 97.5 44.2 97.5 44.2 97.5 44.2 97.9 44 98 43.8 97.8 43.6 97.7 43.5 97.5 43.6 97.3 43.8 97.1 44.2 97 44.8 97.5 45.3 97.9 45.5 98.6 45.5 98.6 46.7 99.4 47.6 99.1 47.6 99.1 44.9 97.8 45 96.3 45.6 95.7 46.3 95.1 47.5 95.1 48.2 95.5 49.3 96.2 49.1 96.9 49.1 96.9 50 97.2 50.7 98 50.7 98 50.7 98 50.5 97.2 51.2 97.2 52 97.1 52.8 97.9 52.8 97.9 52.8 97.9 51.8 95.8 50.3 93.8 49.5 92.8 48.7 92 48.1 91.5 47.4 90.9 46.9 90.5 46.9 90.5L47.1 90.5C49.6 92.4 51.2 94.5 52.2 96.2 53.2 97.8 53.8 99 53.8 99 55.2 98.9 55.9 99.9 55.9 99.9zM53.1 100.6C53.6 101.3 54 101.7 54.3 101.7 54.6 101.8 54.9 101.6 54.9 101.6 54.2 101.1 53.1 99.5 53.1 99.5L52.4 99.6C52.4 99.6 52.6 99.9 53.1 100.6zM50.2 97.7C49.6 97.3 49.1 97.1 49.1 97.1 49.1 97.1 49.1 97.5 48.8 97.8 48.4 98.1 48.2 97.9 48 97.7 47.8 97.5 47.7 97.1 48 96.9 48.4 96.6 48.8 96.8 48.8 96.8 48.9 96.4 48.6 96.1 48.3 95.9 47.7 95.6 46.9 95.5 46.2 96 45.4 96.6 45.7 97.5 46.4 98.1 47.1 98.7 47.9 99 48.1 99 48.4 99 48.7 98.8 49.1 98.8 49.6 98.8 49.9 99 50.4 99.2 50.8 99.4 51.6 99.2 51.6 99.2 51.3 98.8 50.7 98.1 50.2 97.7zM48.8 97C48.1 97 48 97.5 48.1 97.6 48.2 97.7 48.4 97.7 48.5 97.5 48.8 97.3 48.8 97 48.8 97zM53.4 99L53.1 98.4C53.1 98.4 51.9 97.1 51.4 97.8 51 98.4 52 99.2 52 99.2 52 99.2 52.8 99 53.4 99z" />
    </g>
    <g transform="matrix(3.5961261,0,0,3.5961261,-42.305698,-218.40281)">
      <path d="M54.9 97.5C54.9 97.6 54.8 97.8 54.6 97.8 54.4 97.8 54.2 97.7 54.2 97.5 54.2 97.4 54.4 97.2 54.6 97.2 54.7 97.2 54.9 97.4 54.9 97.5z" />
    </g>
    <g transform="matrix(3.5961261,0,0,3.5961261,-42.305698,-218.40281)">
      <path d="M44.4 100.2C44.5 100.1 44.6 100.2 44.8 100.5 45 100.7 45.1 101.3 44.9 101.4 44.8 101.5 44.6 101.3 44.6 101.2 44.6 101 44.8 101 44.6 100.6 44.5 100.3 44.4 100.2 44.4 100.2z" />
    </g>
    <g transform="matrix(3.5961261,0,0,3.5961261,-42.305698,-218.40281)">
      <path d="M45.1 100.4C45.2 100.4 45.3 100.7 45.4 100.9 45.5 101 45.7 101.3 45.8 101.5 45.9 101.6 46 101.9 45.9 101.9 45.8 101.9 45.7 101.9 45.6 101.7 45.4 101.5 45.4 101.2 45.2 100.9 45.1 100.7 44.9 100.5 45.1 100.4z" />
    </g>
    <g transform="matrix(3.5961261,0,0,3.5961261,-42.305698,-218.40281)">
      <path d="M45.5 100.8C45.4 100.6 45.4 100.5 45.4 100.4 45.3 100.2 45.5 100.2 45.6 100.4 45.6 100.6 45.8 100.8 46 100.9 46.2 101 46.4 101.3 46.2 101.4 46 101.5 45.6 101 45.5 100.8z" />
    </g>
    <g transform="matrix(3.5961261,0,0,3.5961261,-42.305698,-218.40281)">
      <path d="M22.6 100.2C22.7 100.1 22.9 100.2 23 100.5 23.2 100.7 23.3 101.3 23.2 101.4 23 101.5 22.8 101.3 22.8 101.2 22.8 101 23 101 22.8 100.6 22.7 100.3 22.6 100.2 22.6 100.2z" />
    </g>
    <g transform="matrix(3.5961261,0,0,3.5961261,-42.305698,-218.40281)">
      <path d="M23.3 100.4C23.4 100.4 23.5 100.7 23.6 100.9 23.7 101 23.9 101.3 24 101.5 24.1 101.6 24.2 101.9 24.1 101.9 24 101.9 23.9 101.9 23.8 101.7 23.6 101.5 23.6 101.2 23.4 100.9 23.4 100.7 23.2 100.5 23.3 100.4z" />
    </g>
    <g transform="matrix(3.5961261,0,0,3.5961261,-42.305698,-218.40281)">
      <path d="M23.7 100.8C23.6 100.6 23.6 100.5 23.6 100.4 23.5 100.2 23.7 100.2 23.8 100.4 23.8 100.6 24.1 100.8 24.2 100.9 24.4 101 24.6 101.3 24.4 101.4 24.2 101.5 23.9 101 23.7 100.8z" />
    </g>
    <g transform="matrix(3.5961261,0,0,3.5961261,-42.305698,-218.40281)">
      <path d="M15.5 100.2C15.5 100.1 15.7 100.2 15.9 100.5 16 100.7 16.1 101.3 16 101.4 15.9 101.5 15.6 101.3 15.6 101.2 15.6 101 15.8 101 15.7 100.6 15.6 100.3 15.4 100.2 15.5 100.2z" />
    </g>
    <g transform="matrix(3.5961261,0,0,3.5961261,-42.305698,-218.40281)">
      <path d="M16.1 100.4C16.2 100.4 16.4 100.7 16.4 100.9 16.5 101 16.7 101.3 16.8 101.5 16.9 101.6 17 101.9 16.9 101.9 16.8 101.9 16.8 101.9 16.6 101.7 16.5 101.5 16.4 101.2 16.3 100.9 16.2 100.7 16 100.5 16.1 100.4z" />
    </g>
    <g transform="matrix(3.5961261,0,0,3.5961261,-42.305698,-218.40281)">
      <path d="M16.6 100.8C16.5 100.6 16.4 100.5 16.4 100.4 16.4 100.2 16.5 100.2 16.6 100.4 16.7 100.6 16.9 100.8 17 100.9 17.2 101 17.5 101.3 17.3 101.4 17 101.5 16.7 101 16.6 100.8z" />
    </g>
    <g transform="matrix(3.5961261,0,0,3.5961261,-42.305698,-218.40281)">
      <path d="M60.7 100.2C60.8 100.1 61 100.2 61.1 100.5 61.3 100.7 61.4 101.3 61.3 101.4 61.1 101.5 60.9 101.3 60.9 101.2 60.9 101 61.1 101 60.9 100.6 60.8 100.3 60.7 100.2 60.7 100.2z" />
    </g>
    <g transform="matrix(3.5961261,0,0,3.5961261,-42.305698,-218.40281)">
      <path d="M61.4 100.4C61.5 100.4 61.6 100.7 61.7 100.9 61.8 101 62 101.3 62.1 101.5 62.2 101.6 62.3 101.9 62.2 101.9 62.1 101.9 62 101.9 61.9 101.7 61.7 101.5 61.7 101.2 61.6 100.9 61.5 100.7 61.3 100.5 61.4 100.4z" />
    </g>
    <g transform="matrix(3.5961261,0,0,3.5961261,-42.305698,-218.40281)">
      <path d="M61.9 100.8C61.7 100.6 61.7 100.5 61.7 100.4 61.6 100.2 61.8 100.2 61.9 100.4 61.9 100.6 62.2 100.8 62.3 100.9 62.5 101 62.7 101.3 62.5 101.4 62.3 101.5 62 101 61.9 100.8z" />
    </g>
    <g transform="matrix(3.5961261,0,0,3.5961261,-42.305698,-218.40281)">
      <path d="M67.8 100.2C67.9 100.1 68.1 100.2 68.2 100.5 68.4 100.7 68.5 101.3 68.4 101.4 68.2 101.5 68 101.3 68 101.2 68 101 68.2 101 68 100.6 67.9 100.3 67.8 100.2 67.8 100.2z" />
    </g>
    <g transform="matrix(3.5961261,0,0,3.5961261,-42.305698,-218.40281)">
      <path d="M68.5 100.4C68.6 100.4 68.7 100.7 68.8 100.9 68.9 101 69.1 101.3 69.2 101.5 69.3 101.6 69.4 101.9 69.3 101.9 69.2 101.9 69.1 101.9 69 101.7 68.8 101.5 68.8 101.2 68.7 100.9 68.6 100.7 68.4 100.5 68.5 100.4z" />
    </g>
    <g transform="matrix(3.5961261,0,0,3.5961261,-42.305698,-218.40281)">
      <path d="M69 100.8C68.8 100.6 68.8 100.5 68.8 100.4 68.7 100.2 68.9 100.2 69 100.4 69 100.6 69.3 100.8 69.4 100.9 69.6 101 69.8 101.3 69.6 101.4 69.4 101.5 69.1 101 69 100.8z" />
    </g>
    <g transform="matrix(3.5961261,0,0,3.5961261,-42.305698,-218.40281)">
      <path d="M85.9 100.2C86 100.1 86.1 100.2 86.3 100.5 86.5 100.7 86.6 101.3 86.4 101.4 86.3 101.5 86.1 101.3 86.1 101.2 86.1 101 86.3 101 86.1 100.6 86 100.3 85.9 100.2 85.9 100.2z" />
    </g>
    <g transform="matrix(3.5961261,0,0,3.5961261,-42.305698,-218.40281)">
      <path d="M86.6 100.4C86.7 100.4 86.8 100.7 86.9 100.9 87 101 87.2 101.3 87.3 101.5 87.4 101.6 87.5 101.9 87.4 101.9 87.3 101.9 87.2 101.9 87.1 101.7 86.9 101.5 86.9 101.2 86.7 100.9 86.7 100.7 86.4 100.5 86.6 100.4z" />
    </g>
    <g transform="matrix(3.5961261,0,0,3.5961261,-42.305698,-218.40281)">
      <path d="M87 100.8C86.9 100.6 86.9 100.5 86.9 100.4 86.8 100.2 87 100.2 87.1 100.4 87.1 100.6 87.4 100.8 87.5 100.9 87.7 101 87.9 101.3 87.7 101.4 87.5 101.5 87.2 101 87 100.8z" />
    </g>
    <g transform="matrix(3.5961261,0,0,3.5961261,-42.305698,-218.40281)">
      <path d="M93.5 99.7C93.2 98.9 92 99.2 91 99.4 90 99.6 89.2 99.6 89.2 99.6 90 100.7 90.7 101.4 91.4 101.8 92.1 102.2 92.5 102.1 92.6 102 92.8 101.9 93 101.6 92.9 101.3 92.8 101.1 92.5 100.9 92.2 101 91.9 101.1 92 101.3 92 101.3 92.5 101.1 92.6 101.6 92.4 101.8 92.2 102 92 101.8 91.9 101.7 91.8 101.6 91.4 101.1 91.9 100.8 92.5 100.5 92.9 100.8 93.1 101 93.3 101.2 93.6 101.9 93.1 102.4 92.6 102.8 91.7 102.3 90.8 101.6 90 100.9 89 99.6 89 99.6 87.8 99.5 86.9 99.1 86.9 99.1 86.9 99.1 87 99.6 86.5 99.6 85.6 99.6 84.7 98.8 84.7 98.8 84.9 99.1 85.1 99.6 84.8 99.6 84.5 99.7 83.4 98.9 83.4 98.9 83.4 98.9 83.6 99.5 82.9 99.6 82.2 99.6 81.7 99.1 81.7 99.1 81.7 99.3 81.6 99.6 81.1 99.6 80.5 99.6 79.5 98.9 79.5 98.9 79.6 99 79.8 99.5 79.6 99.6 79.3 99.7 78.2 98.9 78.2 98.9 78.4 99.3 78.6 99.6 78.6 99.6 75.6 100.1 73.8 98.9 73.8 98.9 74 99.3 74.4 99.8 74.4 99.8 74.1 99.8 74.2 99.6 73.6 99.5 73 99.5 72 99.6 70.9 99.6 69.7 99.5 68.7 98.9 68.7 98.9 68.7 99 68.8 99.6 68.4 99.5 68 99.5 66.8 98.7 66.8 98.7 66.8 98.7 66.9 99.4 66.5 99.5 66 99.7 65.1 99 65.1 99 65.1 99 65 99.5 64.7 99.6 64.1 99.7 63.3 98.9 63.3 98.9 63.3 98.9 63.6 99.5 63.4 99.6 63.2 99.7 62.6 99.2 62.6 99.2 63.8 101.2 64 101.5 64.5 102.1 65.2 102.6 65.6 102.5 65.6 102.5L65.7 102.6C64.9 102.6 64.1 102 63.5 101.2 62.5 99.9 61.7 98.5 61.7 98.5 60.7 97.6 60.1 97.6 59.9 97.7 59.6 97.8 59.5 98.5 59.8 98.9 60.2 99.4 60.7 99.2 60.7 99.2 60.7 99.2 60.4 98.9 60.7 98.8 60.8 98.7 60.9 98.8 61.1 98.9 61.2 99.1 61.3 99.3 61 99.5 60.6 99.8 59.7 99.3 59.4 98.7 59 98.2 59 97.6 59.3 97.3 60 96.8 61.4 98.1 61.4 98.1 60.9 97.2 59.9 95.3 57.9 93.2 56.1 91.2 54.7 90.3 54.7 90.3L54.8 90.3C55.7 90.8 56.9 91.9 58.2 93.2 59.2 94.2 60.1 95.3 60.8 96.3 61.6 97.6 62.2 98.6 62.3 98.8 62.5 98.9 62.8 99.2 62.9 99.1 63 99 62.9 98.7 62.5 98.1 62.2 97.5 61.9 97.2 61.9 97.2 61.9 97.2 62.4 97.3 62.7 97.9 63.3 99 64.2 99.2 64.4 99.1 64.5 98.9 64.6 98.5 64.3 98 63.9 97.3 63.6 97.5 63.6 97.5 63.6 97.5 64 97.8 63.7 98 63.3 98.4 62.9 97.6 63.2 97.4 63.6 97.1 64 97.2 64.4 97.7 64.9 98.1 65 98.7 65 98.7 65.9 99.4 66.3 99 66.1 98.3 66 97.6 65.6 97.6 65.6 97.6 65.6 97.6 65.7 97.7 65.5 97.9 65.1 98.2 64.8 97.6 65 97.4 65.2 97.2 65.5 97.1 66 97.6 66.6 98 66.7 98.5 66.7 98.5 66.7 98.5 68.1 99.3 68.1 98.9 68.3 98.2 66.9 97.2 66.9 97.2L67.2 97.2C67.4 97.3 67.7 97.4 67.9 97.3 68.1 97.3 68.9 96.7 67.3 95 65.5 93 63.8 91.8 63.8 91.8L64 91.8C67.3 94.2 68.8 95.8 68.8 97.1 68.7 98.1 67.6 97.6 67.6 97.6 68.3 98.1 68.7 98.7 68.7 98.7 69.8 99.2 70.4 99.2 70.4 99.2 70.4 99.2 69.1 98.3 69.4 97.6 69.7 96.8 71 97.6 71 97.6 71.3 96.7 72.7 97.7 72.7 97.7 72.7 97.7 71.8 96 70.4 94.2 68.7 91.9 66.3 90.4 66.3 90.4L66.4 90.4C67.2 91 68.9 92.1 70.6 94.2 72.3 96.3 73.6 98.7 73.6 98.7 74.3 99 75 99.2 75 99.2 75 99.2 73.7 98.2 74 97.5 74.3 96.8 75.6 97.7 75.6 97.7 75.9 96.8 77 97.6 77 97.6 77 97.6 75.8 95.8 74.6 94.5 72.3 92.1 69.7 90.3 69.7 90.3L69.9 90.3C69.9 90.3 72.9 92.3 75 94.6 76.9 96.6 78 98.6 78 98.6 78.5 98.9 79 99.2 79.1 99.1 79.2 99 79.1 98.7 78.8 98.3 78.6 97.9 77.8 96.5 76 94.3 74.2 92.1 72.3 90.7 72.3 90.7L72.5 90.7C72.5 90.7 74.1 92 75.9 93.9 77.7 95.9 78.4 97 78.4 97 78.4 97 78.7 97.3 79.3 97.3 80.1 97.3 80.8 96.9 81.7 97.1 83.2 97.3 83.5 97.8 83.5 97.8 82.5 97.3 82.1 97.5 82.1 97.5 83.1 98 83.4 98.7 83.4 98.7 83.8 99.1 84.3 99.3 84.4 99.2 84.5 99 84.2 98.3 83.8 97.7 83.5 97.1 82.4 95.3 80.8 93.6 78.7 91.3 77.3 90.3 77.3 90.3L77.4 90.3C77.4 90.3 80.4 92.7 82.1 94.8 83.6 96.6 84.5 98.3 84.5 98.3 85.4 99.3 86.1 99.2 86.2 99.1 86.3 99 86.6 98.5 86.1 98 85.5 97.4 85.3 97.7 85.3 97.7 85.3 97.7 85.3 97.9 85.2 98 85 98.2 84.4 97.8 84.8 97.4 85.1 97 85.7 97.3 86.2 97.8 86.8 98.2 86.9 98.9 86.9 98.9 88.4 99.6 89.5 99.2 89.5 99.2 87.2 98.4 86.7 96.8 86.9 96.1 87.1 95.3 88.3 95 89.4 95.3 90.5 95.7 91.1 96.5 91 97 90.9 97.5 90.4 97.8 89.8 97.7 89.2 97.5 89.1 96.8 89.6 96.9 90 96.9 89.9 97.4 89.9 97.4 90.4 97.6 91 96.9 90.5 96.2 89.9 95.5 88.7 95.5 88 95.8 87.3 96.2 86.9 97 87.9 98 88.9 99 90.1 99 90.1 99 90.1 99 91.4 98.7 92.1 98.8 93.5 99 93.9 99.8 93.9 99.8L93.5 99.7zM71 97.8C71 97.8 70.1 97.4 70 97.8 69.8 98.2 70.3 99 71.1 99.2 71.1 99.2 71.6 99.2 72 99.2 72 99.2 71.1 98.5 71 97.8zM72.9 98.1C72.9 98.1 71.9 97.5 71.6 97.8 71.3 98.1 72 99 72.4 99.1 72.4 99.1 73 99.1 73.7 99.3 73.7 99.3 73.4 98.8 72.9 98.1zM75.6 97.9C75.6 97.9 74.8 97.4 74.6 97.8 74.4 98.1 74.7 98.9 75.4 99.2 75.4 99.2 76.1 99.3 76.6 99.3 76.6 99.3 75.6 98.5 75.6 97.9zM77.2 97.9C77.2 97.9 76.5 97.6 76.2 97.8 75.9 98 76.4 98.9 76.9 99.2 76.9 99.2 77.5 99.2 77.9 99.1L77.2 97.9zM80.4 97.6C80.4 97.6 79.4 97.7 78.7 97.4L79.3 98.3C79.3 98.3 79.6 98.7 80 99 80.4 99.2 80.9 99.4 81 99 81.2 98.8 81.1 98.5 80.9 98.3 80.7 97.9 80.4 97.6 80.4 97.6zM81.8 97.5C81.8 97.5 81.2 97.5 80.6 97.6 80.6 97.6 81.5 98.3 81.6 98.9 81.6 98.9 82.5 99.5 82.8 99 83 98.6 82.4 97.7 81.8 97.5z" />
    </g>
    <g transform="matrix(3.5961261,0,0,3.5961261,-42.305698,-218.40281)">
      <path d="M81.8 100C82.6 99.8 83.3 99.9 83.6 100.1 83.9 100.2 84.3 100.8 84 100.8 83.7 100.8 83.7 100.3 83.7 100.3 83 100.1 82.7 100.3 81.6 100.4 81 100.5 80.5 100.3 80.1 100.2 79.5 100 79.3 99.6 79.3 99.6 80.1 100.1 80.9 100.1 81.8 100z" />
    </g>
    <g transform="matrix(3.5961261,0,0,3.5961261,-42.305698,-218.40281)">
      <path d="M81.9 100.6C82 100.5 82.3 100.7 82.3 100.9 82.4 101.1 82.7 101.4 82.9 101.4 83 101.5 83.1 101.7 82.9 101.7 82.8 101.7 82.5 101.6 82.4 101.4 82.3 101.2 82.1 100.9 82 100.8 81.9 100.7 81.8 100.6 81.9 100.6z" />
    </g>
    <g transform="matrix(3.5961261,0,0,3.5961261,-355.53063,-267.22684)">
      <path d="M140.2 100.2C140.2 100.1 140.4 100.2 140.5 100.5 140.7 100.7 140.8 101.3 140.7 101.4 140.5 101.5 140.3 101.3 140.3 101.2 140.3 101 140.5 101 140.3 100.6 140.3 100.3 140.1 100.2 140.2 100.2z" />
    </g>
    <g transform="matrix(3.5961261,0,0,3.5961261,-355.53063,-267.22684)">
      <path d="M140.8 100.4C140.9 100.4 141 100.7 141.1 100.9 141.2 101 141.4 101.3 141.5 101.4 141.6 101.6 141.7 101.9 141.6 101.9 141.5 101.9 141.4 101.8 141.3 101.7 141.1 101.5 141.1 101.2 141 100.9 140.9 100.7 140.7 100.5 140.8 100.4z" />
    </g>
    <g transform="matrix(3.5961261,0,0,3.5961261,-355.53063,-267.22684)">
      <path d="M141.3 100.8C141.2 100.6 141.1 100.5 141.1 100.4 141 100.2 141.2 100.2 141.3 100.4 141.3 100.6 141.6 100.8 141.7 100.9 141.9 101 142.2 101.2 141.9 101.4 141.7 101.5 141.4 101 141.3 100.8z" />
    </g>
    <g transform="matrix(3.5961261,0,0,3.5961261,-355.53063,-267.22684)">
      <path d="M175.6 100.2C175.7 100.1 175.8 100.2 176 100.5 176.2 100.7 176.3 101.3 176.1 101.4 176 101.5 175.8 101.3 175.8 101.2 175.8 101 176 101 175.8 100.6 175.7 100.3 175.5 100.2 175.6 100.2z" />
    </g>
    <g transform="matrix(3.5961261,0,0,3.5961261,-355.53063,-267.22684)">
      <path d="M176.2 100.4C176.4 100.4 176.5 100.7 176.6 100.9 176.7 101 176.9 101.3 177 101.4 177.1 101.6 177.2 101.9 177.1 101.9 177 101.9 176.9 101.8 176.7 101.7 176.6 101.5 176.5 101.2 176.4 100.9 176.3 100.7 176.1 100.5 176.2 100.4z" />
    </g>
    <g transform="matrix(3.5961261,0,0,3.5961261,-355.53063,-267.22684)">
      <path d="M176.7 100.8C176.6 100.6 176.6 100.5 176.5 100.4 176.5 100.2 176.7 100.2 176.8 100.4 176.8 100.6 177 100.8 177.2 100.9 177.4 101 177.6 101.2 177.4 101.4 177.2 101.5 176.8 101 176.7 100.8z" />
    </g>
    <g transform="matrix(3.5961261,0,0,3.5961261,-355.53063,-267.22684)">
      <path d="M120.7 100.2C120.7 100.1 120.9 100.2 121.1 100.5 121.2 100.7 121.4 101.3 121.2 101.4 121.1 101.5 120.9 101.3 120.8 101.2 120.8 101 121 101 120.9 100.6 120.8 100.3 120.6 100.2 120.7 100.2z" />
    </g>
    <g transform="matrix(3.5961261,0,0,3.5961261,-355.53063,-267.22684)">
      <path d="M121.3 100.4C121.4 100.4 121.6 100.7 121.6 100.9 121.7 101 121.9 101.3 122 101.4 122.1 101.6 122.2 101.9 122.1 101.9 122 101.9 122 101.8 121.8 101.7 121.7 101.5 121.6 101.2 121.5 100.9 121.4 100.7 121.2 100.5 121.3 100.4z" />
    </g>
    <g transform="matrix(3.5961261,0,0,3.5961261,-355.53063,-267.22684)">
      <path d="M121.8 100.8C121.7 100.6 121.6 100.5 121.6 100.4 121.6 100.2 121.7 100.2 121.8 100.4 121.9 100.6 122.1 100.8 122.2 100.9 122.4 101 122.7 101.2 122.5 101.4 122.2 101.5 121.9 101 121.8 100.8z" />
    </g>
    <g transform="matrix(3.5961261,0,0,3.5961261,-355.53063,-267.22684)">
      <path d="M117.2 100.2C117.2 100.1 117.4 100.2 117.6 100.5 117.7 100.7 117.9 101.3 117.7 101.4 117.6 101.5 117.4 101.3 117.4 101.2 117.3 101 117.5 101 117.4 100.6 117.3 100.3 117.1 100.2 117.2 100.2z" />
    </g>
    <g transform="matrix(3.5961261,0,0,3.5961261,-355.53063,-267.22684)">
      <path d="M117.8 100.4C118 100.4 118.1 100.7 118.2 100.9 118.2 101 118.4 101.3 118.5 101.4 118.6 101.6 118.7 101.9 118.6 101.9 118.5 101.9 118.5 101.8 118.3 101.7 118.2 101.5 118.1 101.2 118 100.9 117.9 100.7 117.7 100.5 117.8 100.4z" />
    </g>
    <g transform="matrix(3.5961261,0,0,3.5961261,-355.53063,-267.22684)">
      <path d="M118.3 100.8C118.2 100.6 118.2 100.5 118.1 100.4 118.1 100.2 118.3 100.2 118.3 100.4 118.4 100.6 118.6 100.8 118.8 100.9 118.9 101 119.2 101.2 119 101.4 118.8 101.5 118.4 101 118.3 100.8z" />
    </g>
    <g transform="matrix(3.5961261,0,0,3.5961261,-355.53063,-267.22684)">
      <path d="M103.2 100.2C103.2 100.1 103.4 100.2 103.6 100.5 103.7 100.7 103.9 101.3 103.7 101.4 103.6 101.5 103.4 101.3 103.4 101.2 103.3 101 103.5 101 103.4 100.6 103.3 100.3 103.1 100.2 103.2 100.2z" />
    </g>
    <g transform="matrix(3.5961261,0,0,3.5961261,-355.53063,-267.22684)">
      <path d="M103.8 100.4C104 100.4 104.1 100.7 104.2 100.9 104.2 101 104.4 101.3 104.5 101.4 104.6 101.6 104.7 101.9 104.6 101.9 104.6 101.9 104.5 101.8 104.3 101.7 104.2 101.5 104.1 101.2 104 100.9 103.9 100.7 103.7 100.5 103.8 100.4z" />
    </g>
    <g transform="matrix(3.5961261,0,0,3.5961261,-355.53063,-267.22684)">
      <path d="M104.3 100.8C104.2 100.6 104.2 100.5 104.1 100.4 104.1 100.2 104.3 100.2 104.3 100.4 104.4 100.6 104.6 100.8 104.8 100.9 104.9 101 105.2 101.2 105 101.4 104.8 101.5 104.4 101 104.3 100.8z" />
    </g>
    <g transform="matrix(3.5961261,0,0,3.5961261,-355.53063,-267.22684)">
      <path d="M96.3 100.2C96.3 100.1 96.5 100.2 96.6 100.5 96.8 100.7 96.9 101.3 96.8 101.4 96.6 101.5 96.4 101.3 96.4 101.2 96.4 101 96.6 101 96.4 100.6 96.4 100.3 96.2 100.2 96.3 100.2z" />
    </g>
    <g transform="matrix(3.5961261,0,0,3.5961261,-355.53063,-267.22684)">
      <path d="M96.9 100.4C97 100.4 97.1 100.7 97.2 100.9 97.3 101 97.5 101.3 97.6 101.4 97.7 101.6 97.8 101.9 97.7 101.9 97.6 101.9 97.5 101.8 97.4 101.7 97.2 101.5 97.2 101.2 97.1 100.9 97 100.7 96.8 100.5 96.9 100.4z" />
    </g>
    <g transform="matrix(3.5961261,0,0,3.5961261,-355.53063,-267.22684)">
      <path d="M97.4 100.8C97.2 100.6 97.2 100.5 97.2 100.4 97.1 100.2 97.3 100.2 97.4 100.4 97.4 100.6 97.7 100.8 97.8 100.9 98 101 98.2 101.2 98 101.4 97.8 101.5 97.5 101 97.4 100.8z" />
    </g>
    <g transform="matrix(3.5961261,0,0,3.5961261,-355.53063,-267.22684)">
      <path d="M110 99.3C110 99.3 109.9 99.2 109.2 99.2 108.3 99.2 105.6 99.8 104 98.6 104 98.6 104.2 99.2 103.6 99.3 103.4 99.3 103.1 99.2 102.8 99 102.4 98.8 102 98.5 102 98.5 102 98.5 102.1 99 101.7 99.3 101.4 99.5 100.6 98.9 100.4 98.7 100.4 98.7 100.4 99.1 100.1 99.2 99.8 99.3 99 98.9 98.8 98.7 98.8 98.7 99 99.1 98.8 99.2 98.6 99.3 97.9 99 97.4 98.6 97.4 98.6 97.9 99.4 98.5 100.3 99.2 101.3 100 102.3 101 102.2L101.1 102.3C101.1 102.3 100.1 102.7 98.4 100.5 98.4 100.5 97.3 99.2 96.7 98 96.7 98 95.7 97 95.3 97.5 94.9 97.9 95.4 99.2 96.1 99 96.1 99 95.9 98.8 96.1 98.6 96.3 98.5 96.9 98.9 96.6 99.1 96.3 99.3 95.6 99.4 95 98.5 94.3 97.6 94.7 97.2 94.9 97 95.2 96.9 95.7 96.9 96.3 97.5 96.3 97.5 95.1 95.4 93.5 93.7 91.9 92 89.6 90.6 89.6 90.6L89.8 90.6C89.8 90.6 92.1 92.1 93.7 93.7 95.4 95.4 96.4 96.9 97.2 98.2 97.2 98.2 97.9 98.9 98.3 98.8 98.4 98.7 98.1 98.2 97.9 97.9 97.7 97.5 97.4 97 97.1 96.9 97.1 96.9 97.4 96.8 97.9 97.3 97.9 97.3 98.8 98.9 99.6 98.8 99.9 98.7 99.8 98.4 99.7 98 99.6 97.5 99.4 97.2 98.8 97.2 98.8 97.2 99.1 97.6 98.7 97.7 98.3 97.8 98.1 97 98.6 96.9 99.1 96.8 100.1 97.3 100.3 98.4 100.3 98.4 100.9 99 101.3 98.8 101.7 98.6 101.4 97.1 100.8 97.2 100.8 97.2 101 97.5 100.7 97.6 100.4 97.8 99.9 97.1 100.5 96.9 101.3 96.8 102 97.8 102 98.3 102 98.3 102.4 98.6 102.8 98.8 103.1 99 103.4 98.9 103.5 98.7 103.6 98.2 103 97.3 102.4 96.9L102.6 96.9C102.6 96.9 103.4 97.6 103.7 97.1 104.1 96.7 103.7 95.4 102.1 94 100.5 92.6 99.8 92.2 99 91.7L99.2 91.7C99.2 91.7 102.3 93.6 103.5 95.1 104.7 96.7 104.7 97.9 103.4 97.6 103.4 97.6 103.8 98 104 98.5 104 98.5 104.5 98.9 105.9 99 105.9 99 104.4 98.2 104.8 97.3 105.2 96.5 106.5 97.5 106.5 97.5 106.5 97.5 106.6 96.5 107.9 97.3 107.9 97.3 107.3 96 104.2 93.2 102 91.2 99.8 89.9 99.8 89.9L100 89.9C100 89.9 102.4 91.3 105.2 93.9 108 96.4 109.1 98.5 109.3 98.7 109.5 98.9 109.9 99.1 110 99.3zM106.5 97.7C106.5 97.7 105.6 96.9 105.4 97.4 105 98.2 106.3 99 106.3 99 106.7 99 107.6 98.9 107.6 98.9 106.5 98.3 106.5 97.7 106.5 97.7zM108.4 97.9C108.4 97.9 107.4 97.1 107.1 97.4 106.6 98.1 107.9 98.9 107.9 98.9 108.7 98.8 109.1 98.9 109.1 98.9 108.8 98.5 108.4 97.9 108.4 97.9z" />
    </g>
    <g transform="matrix(3.5961261,0,0,3.5961261,-355.53063,-267.22684)">
      <path d="M132.3 101.9C131.6 102.4 130.4 101.6 129.8 100.9 129.3 100.1 128.8 99.3 128.8 99.3 126.3 99.2 125.8 98.1 125.8 98.1 126.9 98.9 127.9 98.8 127.9 98.8 127.5 98.5 127.4 98.2 126.8 97.6 126.2 97 125.6 97 125.6 97 125.7 97.8 124.8 98.1 124.5 97.8 124.2 97.6 124.2 97.3 124.5 97 124.8 96.8 125.3 96.8 125.3 96.8 125.1 96 124.3 95.5 123.1 95.6 121.8 95.7 121.4 96.7 122.3 97.8 123.1 98.8 124.3 98.9 124.3 98.9 124.3 98.9 125.2 98.5 126.1 98.8 126.9 99.2 126.9 99.6 126.9 99.6L126.4 99.4C126.3 98.9 125.7 99 125.1 99.1 124.5 99.3 123.7 99.4 123.7 99.4 124.1 99.8 124.5 100.3 125.5 101.1 126.5 101.9 127.1 102 127.5 101.8 127.8 101.6 127.8 101.2 127.7 101 127.6 100.8 127.4 100.6 126.9 100.7 126.4 100.9 126.7 101.2 126.7 101.2 126.7 101.1 127.1 100.9 127.3 101.2 127.5 101.5 127 101.9 126.6 101.5 126.3 101.3 126.1 100.8 126.5 100.6 126.9 100.3 127.5 100.5 127.8 100.7 128 101 128.5 101.6 127.9 102.1 127.4 102.5 126.5 102.2 125.4 101.2 124.3 100.3 123.5 99.3 123.5 99.3 122.2 99.4 121.4 98.7 121.4 98.7 121.4 98.7 121.4 99.2 121.2 99.3 120.3 99.4 119.4 98.4 119.4 98.4 119.4 98.4 119.9 99.3 119.6 99.3 118.8 99.2 117.6 98.3 117.6 98.3 117.6 98.3 117.7 98.6 117.9 98.8 118.1 99.1 118.4 99.4 118.4 99.4 118.1 99.2 117.9 99.2 116.8 99.3 115.7 99.4 115 98.7 115 98.7 115 98.7 115.2 99.2 114.9 99.3 114.5 99.3 114.2 99.2 114 99.1 113.7 98.9 113.5 98.6 113.5 98.6 113.5 98.6 114.2 99.1 114.4 98.8 114.7 98.6 113.9 97.4 113.9 97.4 113.9 97.4 113.5 97.2 113.4 97.3 113.2 97.5 113.6 99.2 113.3 99.3 113 99.3 112.1 98.6 112.1 98.6 112.1 98.6 112.2 99.1 111.9 99.2 111.3 99.4 110.2 98.3 110.2 98.3 111.5 101 112 101.5 113 102.2 114.3 103.1 115.1 102.8 115.1 102.8L115.3 103.1C114.7 103.4 112.7 102.4 111.8 101.5 110.8 100.5 109.9 98.8 109.5 97.9 109.2 97.1 108.9 96.9 108.9 96.9 109.5 97 109.6 97.5 110.1 98 110.8 98.6 111.3 98.9 111.5 98.8 111.7 98.7 111.8 98.1 111.5 97.6 111.2 97.1 110.6 97.2 110.6 97.2 111.1 97.7 110.6 97.9 110.3 97.5 109.8 96.9 111 96.8 111.6 97.4 112.3 98.1 112.1 98.5 112.1 98.5L112.5 98.8C113 99.1 112.9 98.2 112.9 97.5 112.9 96.8 113.6 97 113.6 97 113.6 97 113.5 96.6 111.8 94.7 110.2 92.8 109.3 92.4 109.3 92.4L109.4 92.4C110.3 92.9 111.8 94.2 113.2 95.8 114.5 97.3 114.9 98.6 114.9 98.6 115.5 99 116.2 98.9 116.2 98.9 115.5 98.5 114.8 97.7 115.1 97.2 115.4 96.6 116.5 97.2 116.5 97.2 116.5 97.2 116.1 96.5 114.9 95 113.7 93.6 110.9 91.4 110.9 91.4L111 91.4C111 91.4 113.5 93 115.1 94.9 116.7 96.7 117.4 98 117.4 98 118.2 98.6 119 98.9 119.1 98.8 119.2 98.8 119 98.4 118.7 97.9 118.5 97.5 117.6 95.5 114.5 92.8 111.4 90.2 110.2 89.6 110.2 89.6L110.6 89.6C111.3 90.1 113.3 91.4 115.5 93.4 117.7 95.3 118 96 118.3 96.5 118.6 97 118.9 97.7 119.4 98.2 119.8 98.6 120.5 98.9 120.7 98.8 120.9 98.7 121 98.1 120.8 97.6 120.5 97 119.9 97.2 119.9 97.2 119.9 97.2 120.3 97.5 120 97.7 119.6 97.9 119.2 97.2 119.7 97 120 96.8 120.6 97 121 97.5 121.3 97.9 121.4 98.4 121.4 98.4 122.2 99.3 123.8 98.9 123.8 98.9 122 98.3 120.9 96.8 121.4 95.9 122 94.9 123.8 95.2 124.6 95.7 125.4 96.1 125.5 96.8 125.5 96.8 126.3 96.8 127 97.6 127 97.6 127 97.6 127 97 127.5 96.9 128 96.9 128.6 97.4 128.6 97.4 127.6 96 126.6 94.8 124.9 93.1 123.2 91.3 121.4 90.3 121.4 90.3L121.6 90.3C121.6 90.3 123.9 91.7 125.2 93 126.6 94.3 127.7 95.6 128.4 96.6 129.6 98.4 130.1 98.8 130.1 98.8 130.1 98.8 130.7 98.8 131.4 99.1 132.1 99.4 132.2 99.9 132.2 99.9L131.9 99.7C131.7 99 129.9 99.2 129.9 99.2 131.4 101.1 131.9 101.4 132.8 101.8 133.6 102.1 134.2 101.4 133.8 100.9 133.6 100.7 133.3 100.7 133.1 100.9 133 100.9 132.9 101.1 132.9 101.1 133.3 100.9 133.8 101.3 133.4 101.6 133 101.9 132.1 101.1 133 100.6 133.8 100.1 134.8 101.4 134.2 102.1 133.5 102.7 132.3 101.9 132.3 101.9zM125.3 97C125.2 97 125 97 124.8 97.2 124.6 97.3 124.5 97.5 124.6 97.6 124.7 97.7 124.9 97.6 125.1 97.5 125.3 97.3 125.3 97 125.3 97zM116.8 97.6C116.8 97.6 115.7 96.9 115.6 97.6 115.4 98.2 116.3 98.8 116.5 98.9 116.5 98.9 117 98.8 117.6 98.8L116.8 97.6zM128.8 97.7C128.8 97.7 127.9 97 127.6 97.7 127.4 98.3 128.3 98.9 128.3 98.9 128.3 98.9 128.7 98.9 129 98.8 129.3 98.8 129.6 98.8 129.6 98.8 129.6 98.8 129.3 98.4 128.8 97.7zM129.7 99.3C129.7 99.3 129.2 99.3 129 99.3 129 99.3 129.6 100.2 130 100.8 130.5 101.3 131.3 101.9 131.7 101.5 131.7 101.5 131.2 101.2 129.7 99.3z" />
    </g>
    <g transform="matrix(3.5961261,0,0,3.5961261,-355.53063,-267.22684)">
      <path d="M130.6 97.6C130.4 97.6 130.2 97.4 130.2 97.3 130.2 97.1 130.3 97 130.5 97 130.7 97 130.9 97.2 130.9 97.3 130.9 97.4 130.8 97.6 130.6 97.6z" />
    </g>
    <g transform="matrix(3.5961261,0,0,3.5961261,-355.53063,-267.22684)">
      <path d="M150.2 99.3C149.6 99.7 148.6 98.6 148.6 98.6 148.6 98.6 148.9 99.3 148.8 99.3 148.6 99.5 148.2 99.2 148.2 99.2 148.8 100.2 149.6 101.1 149.9 101.4 150.2 101.6 151.1 102.3 151.6 101.8 151.8 101.5 151.8 101.2 151.7 101 151.5 100.8 151.3 100.8 151 100.9 150.7 101.1 150.8 101.3 150.8 101.3 151.1 101.1 151.6 101.4 151.3 101.8 151.1 102.1 150.1 101.4 150.7 100.7 151.3 100.2 152.5 101.1 152.1 101.9 151.6 102.8 150.6 102.2 149.8 101.6 149.1 101 147.9 99.1 147.9 99.1L146.9 98.6C146.9 98.6 147.3 99.2 146.8 99.3 146.3 99.5 145.4 98.9 145.4 98.9 145.4 98.9 145.4 99.3 145 99.4 144.5 99.4 143.5 98.6 143.5 98.6 143.5 98.6 143.9 99.3 143.7 99.4 143.3 99.6 142.3 98.8 142.3 98.8 142.3 98.8 143.4 100.5 144.5 101.6 145.5 102.6 145.9 102.3 145.9 102.3L146.2 102.6C145.8 102.7 145.3 102.5 144.1 101.5 142.9 100.6 142.2 99.3 142.2 99.3 141.1 99.1 141.2 99.4 139.3 99.4 137 99.4 135.8 98.3 135.8 98.3 137.8 99.2 138.5 99 138.5 99 138.5 99 137 98 137.4 97.3 137.7 96.5 139.2 97.6 139.2 97.6 139.4 96.5 140.7 97.3 140.7 97.3 140.7 97.3 140.1 96.3 139 95.2 137.6 93.6 135.1 92.3 135.1 92.3L135.3 92.3C135.3 92.3 138 93.7 139.4 95.1 140.7 96.5 142 98.4 142 98.4 142.5 98.8 143 99 143 98.9 143.1 98.9 142.9 98.4 142.7 98.2 142.6 98 141.1 95.5 139 93.4 136.9 91.3 134.5 90 134.5 90L134.7 90C134.7 90 137.7 91.7 139.3 93.4 141 95 142.2 96.8 142.2 96.8 142.6 97 143 97.1 144.8 97 146.5 96.8 147.3 97.7 147.3 97.7 146.8 97.3 146 97.4 146 97.4 146.4 97.8 146.7 98.3 146.7 98.3 147.3 98.6 148 98.9 148.1 98.8 148.2 98.7 148.1 98.4 147.8 97.8 147.5 97.3 147.1 96.9 147.1 96.9 147.8 97 148.3 98.1 148.3 98.1 148.9 98.7 149.4 99.1 149.7 99 150 98.9 150 98.2 149.8 97.8 149.4 97.1 148.9 97.3 148.9 97.3 149.2 97.4 149.1 97.7 148.9 97.8 148.8 97.8 148.7 97.8 148.5 97.6 148.4 97.4 148.4 96.8 149.3 97.1 150.2 97.4 150.9 98.9 150.2 99.3zM139.2 97.9C139.2 97.9 138.2 97.1 137.9 97.7 137.6 98.3 138.8 99 138.8 99 138.8 99 139.6 98.9 140.1 98.9 140.1 98.9 139.3 98.4 139.2 97.9zM141.1 97.9C141.1 97.9 140.1 97.1 139.8 97.7 139.5 98.2 140.4 98.9 140.4 98.9 140.4 98.9 141.4 98.8 141.9 99L141.1 97.9zM144.2 97.5C144.2 97.5 143.1 97.5 142.5 97.1L143.2 98.1C143.2 98.1 144.4 99.3 144.8 98.8 145.2 98.4 144.2 97.5 144.2 97.5zM145.7 97.4C145.7 97.4 144.8 97.4 144.5 97.5 144.5 97.5 145.3 98.2 145.3 98.6 145.3 98.6 146.1 99.2 146.4 98.9 146.7 98.5 146.1 97.7 145.7 97.4z" />
    </g>
    <g transform="matrix(3.5961261,0,0,3.5961261,-355.53063,-267.22684)">
      <path d="M152.5 96.4C151.7 96.9 151 95.9 151.4 95.6 151.7 95.3 152 95.8 151.9 95.9 151.8 96.1 151.6 96 151.6 96 151.8 96.6 152.9 95.9 152.3 95.3 151.8 94.8 150.3 95.1 150.4 96.1 150.5 97 152.5 98 152.5 98L152.6 98.2C152.4 98.1 151.5 97.5 151.2 97.8 151 98.1 151.4 99.3 152.2 100.2 154 102.1 154.8 102.3 154.8 102.3L154.9 102.5C154.5 102.6 152.5 100.9 151.5 99.7 151 99 150.8 98.6 150.7 98.1 150.5 97.1 151.2 97.4 151.2 97.4 150.6 96.9 149.2 95.6 150.4 94.9 151.1 94.5 151.9 94.7 152.4 95.1 152.8 95.5 152.9 96.1 152.5 96.4z" />
    </g>
    <g transform="matrix(3.5961261,0,0,3.5961261,-355.53063,-267.22684)">
      <path d="M169.6 97C170.8 97.3 170.8 97 171.7 97.1 172.6 97.3 173 97.9 173 97.9 172.1 97.3 171.6 97.5 171.6 97.5 171.6 97.5 173.1 98.9 172.4 99.3 171.7 99.7 170.3 98.4 170.3 98.4 170.3 98.4 170.8 99.3 170.5 99.4 170.2 99.5 168.9 98.6 168.9 98.6 168.9 98.6 169.2 99.3 168.9 99.4 168.2 99.6 167.3 98.9 167.3 98.9 167.3 98.9 167.3 99.4 167.1 99.4 166.8 99.5 165.7 98.8 165.7 98.8 165.9 99.2 166.2 99.4 166.2 99.4 165.9 99.3 165.5 99.4 164.4 99.4 163.2 99.4 162.4 98.8 162.4 98.8 162.4 98.8 162.7 99.3 162.6 99.4 162.2 99.6 160.9 98.8 160.9 98.8 160.9 98.8 161.8 100.4 162.7 101.4 163.7 102.4 164.4 102.4 164.4 102.4L164.4 102.6C163.3 102.5 162 101.1 161.5 100.4 161 99.6 160.1 98.1 160.1 98.1 159.3 97.5 158.9 97.4 158.7 97.7 158.4 97.9 158.4 98.4 158.7 98.8 159 99.3 159.5 99.1 159.5 99.1 159.2 98.8 159.6 98.3 160 98.7 160.2 99 160 99.2 159.9 99.4 159.6 99.6 158.9 99.4 158.5 98.9 157.8 98.2 157.9 97.6 157.9 97.6 157.3 97 156.3 97.3 156.3 97.3 156.3 97.3 156.9 97.8 157 98 157.2 98.2 157.7 98.7 157.4 99.2 157 99.9 155.8 98.9 155.8 98.9 155.8 99.6 155.2 99.3 155.2 99.3 156.2 100.7 156.9 101.3 157.2 101.5 157.5 101.7 158.5 102.2 158.9 101.8 159.3 101.3 158.9 100.8 158.5 100.9 158.2 101 158.2 101.2 158.2 101.2 158.4 101.1 158.9 101.5 158.6 101.7 158.2 102.1 157.5 101.2 158 100.9 158.4 100.5 158.9 100.6 159.1 100.9 159.3 101 159.7 101.6 159.4 102.1 158.9 102.7 158.2 102.4 157.3 101.8 156.4 101.3 154.8 99.2 154.8 99.2 154.4 99.1 154 98.6 154 98.6 154 98.6 154.4 99.2 154.2 99.3 153.9 99.6 152.8 98.9 152.8 98.9L152.8 98.7C152.8 98.7 153.7 99.3 153.7 98.9 153.7 98.6 153.3 98.1 152.9 97.5 152.5 97.1 152.1 96.9 152.1 96.9 153.1 97.2 154.4 97.1 155.8 97 157.1 96.8 158 97.4 158 97.4 158.3 96.6 159.8 97.6 159.8 97.6 159.2 96.6 157.8 94.4 157 93.4 156.2 92.4 154.8 91.3 154.8 91.3L155 91.3C155 91.3 156 92.2 156.7 92.9 157.5 93.7 158.4 94.7 159.1 95.8 159.9 96.9 160.8 98.5 160.8 98.5 160.8 98.5 161.7 99.1 161.9 99 162 98.9 161.7 98.2 161.4 97.8 161.1 97.3 160.5 96.9 160.5 96.9 160.9 96.9 161.4 97.1 161.6 97.4 161.9 97.7 162.2 98.5 162.2 98.5 163 99 163.8 99 163.8 99 163.8 99 162.4 98.1 162.8 97.4 163.2 96.7 164.6 97.4 164.6 97.4 164.6 97.4 163.4 95.4 161.4 93.3 159.3 91.2 157.3 90.1 157.3 90.1L157.6 90.1C159.1 90.9 161.4 92.9 162.9 94.7 164.5 96.5 165.4 98.4 165.4 98.4 165.4 98.4 165.8 98.6 166.4 98.9 166.9 99.1 166.8 98.5 166.8 97.6 166.8 96.8 167.7 97.1 167.7 97.1 167.7 97.1 167.3 96.3 166.5 95.3 165.1 93.7 163.5 92.8 163.5 92.8L163.7 92.8C164.6 93.3 165.5 94 166.7 95.3 168 96.6 168.7 98.2 168.7 98.2 169.1 98.6 169.8 99 169.9 99 170.1 98.9 169.9 98.4 169.8 98.2 169.7 98 169.3 96.5 167.8 94.5 166.4 92.5 165.2 91.8 165.2 91.8L165.4 91.8C166.3 92.5 167.2 93.3 168.2 94.6 169.2 95.9 169.6 97 169.6 97zM154.6 97.5C154.6 97.5 153.7 97.5 153 97.3 153 97.3 154.4 99.2 155.1 98.9 155.7 98.7 155 97.7 154.6 97.5zM156 97.3C156 97.3 155.3 97.4 154.9 97.4 154.9 97.4 155.7 98.1 155.8 98.6 155.8 98.6 156.4 99.3 156.8 98.9 157.2 98.6 156.6 97.7 156 97.3zM164.8 97.8C164.8 97.8 163.6 97 163.3 97.8 163.1 98.5 164.2 99 164.2 99 164.2 99 164.9 99 165.4 98.9L164.8 97.8zM167.9 97.5C167.9 97.5 167.3 97 167.3 97.8 167.2 98.5 167.3 98.7 167.3 98.7 167.3 98.7 167.8 99.2 168.3 99 168.8 98.8 167.9 97.5 167.9 97.5zM171.2 98.8C171.5 99 171.8 99.1 171.9 98.9 172 98.6 171.7 97.9 171.4 97.5 171.4 97.5 170.6 97.7 169.8 97.3 169.8 97.3 170.3 98.4 171.2 98.8z" />
    </g>
    <g transform="matrix(3.5961261,0,0,3.5961261,-355.53063,-267.22684)">
      <path d="M160.6 100.5C160.8 100.6 161.2 101.2 161.4 101.4 161.5 101.7 161.2 101.7 161 101.4 160.8 101.2 160.7 100.9 160.5 100.7 160.3 100.5 160.2 100.4 160.3 100.3 160.4 100.3 160.5 100.4 160.6 100.5z" />
    </g>
    <g transform="matrix(3.5961261,0,0,3.5961261,-355.53063,-267.22684)">
      <path d="M163.7 101.4C163.5 101.2 163.4 100.9 163.3 100.7 163.1 100.5 162.9 100.4 163 100.3 163.1 100.3 163.2 100.4 163.4 100.5 163.5 100.6 164 101.2 164.1 101.4 164.2 101.7 164 101.7 163.7 101.4z" />
    </g>
    <g transform="matrix(3.5961261,0,0,3.5961261,-355.53063,-267.22684)">
      <path d="M172.2 100.8C172.4 100.9 172.8 101.4 173 101.7 173.1 101.9 172.8 101.9 172.6 101.7 172.4 101.5 172.3 101.2 172.1 100.9 172 100.7 171.8 100.7 171.9 100.6 172 100.5 172.1 100.6 172.2 100.8z" />
    </g>
    <g transform="matrix(3.5961261,0,0,3.5961261,-355.53063,-267.22684)">
      <path d="M172.5 99.9C173.7 99.8 173.7 100.7 173.7 100.7 173.6 100.4 173.1 100.2 172.4 100.4 171.8 100.5 170.9 100.5 170.4 100.2 169.8 100 169.6 99.5 169.6 99.5 170.5 100.4 171.4 100.1 172.5 99.9z" />
    </g>
    <g transform="matrix(3.5961261,0,0,3.5961261,-355.53063,-267.22684)">
      <path d="M183.2 101.8C182.8 102.1 181.9 101.1 182.7 100.6 183.2 100.3 183.7 100.6 184 101 184.3 101.4 184.4 101.9 184 102.2 183.2 102.9 182 102 181.2 101.2 180.3 100.5 179.4 99.5 179.4 99.5 177.9 99.5 176.4 98.6 176.4 98.6 176.4 98.6 176.6 99.5 175.8 99.4 174.9 99.3 174.1 98.5 174.1 98.5 174.1 98.5 174.7 99.7 173.9 99.4 172.9 99.1 172.6 98.6 172.6 98.6 172.6 98.6 173.5 99.2 173.7 99.1 173.9 98.9 173.7 98.5 173.5 98.1 173.3 97.7 173.1 96.8 171.2 94.2 169.4 91.7 167.2 90 167.2 90L167.4 90C169.1 91.4 170 92.4 171.2 93.9 172.5 95.4 173.8 98 173.8 98 174.1 98.2 174.5 98.7 175.1 98.9 175.7 99.2 176.1 98.6 175.7 97.9 175.4 97.2 174.7 97.4 174.7 97.4 174.9 97.4 175 97.9 174.5 97.9 174.1 97.9 173.9 97 174.9 97.1 175.9 97.2 176.3 98.4 176.3 98.4 178.3 99.4 179.8 98.9 179.8 98.9 177.8 98.4 176.5 96.7 177.4 95.7 178 95.2 178.8 95 179.5 95 180.3 95 180.6 95.1 181.2 95.4 182.7 96.1 182.7 97.8 181.3 97.7 180 97.5 180.2 96.2 180.9 96.3 181.6 96.4 181.4 96.9 181.1 96.9 180.9 96.9 180.8 96.7 180.8 96.7 180.5 96.8 180.6 97 180.6 97 181 97.7 182 97.5 182 96.9 182.1 96.3 181 95.2 179.9 95.4 178.6 95.5 177.2 96.1 177.7 97.3 178.2 98.4 180.4 98.8 180.4 98.8 181.3 98.5 181.8 98.4 182.6 98.7 183.5 99 183.9 99.7 183.9 99.7L183.4 99.5C182.9 98.6 182.1 98.8 181.4 99.1 180.6 99.3 179.6 99.4 179.6 99.4 180.4 100.3 180.7 100.6 181.7 101.4 182.8 102.2 183.3 102 183.6 101.8 183.8 101.7 183.9 101.3 183.7 101 183.5 100.8 183.2 100.8 183 100.9 182.7 101 182.7 101.3 182.7 101.3 183.1 101 183.5 101.6 183.2 101.8z" />
    </g>
    <path d="M-3.1 134.9C-3.1 134.9-4.1 134.3-4.3 135.3 -4.5 136.2-2.2 137.1-0.2 135.9 1.8 134.8 2.3 133 5.2 133.8 8 134.6 7.2 132.1 5.7 132.7 4.1 133.3 3.4 131.5-0.8 134 -2.6 135.1-2.6 135.7-3.1 134.9zM-2.9 142.1C-2.9 142.1-4.1 141.9-4 143.2 -3.8 144.5-0.4 144.8 1.2 142.4 2.7 140.1 1.8 137.2 4.9 136.8 8.1 136.5 6.3 133.8 5 135.3 3.7 136.8 2.8 135-0.4 140 -1.8 142.3-2.1 142.9-2.9 142.1zM301.9 134.8C301.9 134.8 302.9 134.2 303.1 135.2 303.3 136.1 301.1 136.9 299.2 135.8 297.3 134.7 296.8 133 294.1 133.8 291.4 134.6 292.1 132.2 293.6 132.7 295.1 133.3 295.8 131.6 299.7 133.9 301.5 135 301.5 135.5 301.9 134.8zM301.7 141.7C301.7 141.7 302.9 141.4 302.8 142.7 302.6 143.9 299.4 144.2 297.9 142 296.4 139.7 297.3 137 294.3 136.7 291.3 136.3 293 133.8 294.2 135.2 295.5 136.6 296.3 134.9 299.3 139.7 300.7 141.8 301 142.4 301.7 141.7z" />
  </g>
</svg>